<svg xmlns="http://www.w3.org/2000/svg" version="1.1" xmlns:xlink="http://www.w3.org/1999/xlink" xmlns:svgjs="http://svgjs.dev/svgjs" width="1500" height="935" viewBox="0 0 1500 935"><g transform="matrix(1,0,0,1,-0.9090909090909918,0.3785425101214628)"><svg viewBox="0 0 396 247" data-background-color="#ffffff" preserveAspectRatio="xMidYMid meet" height="935" width="1500" xmlns="http://www.w3.org/2000/svg" xmlns:xlink="http://www.w3.org/1999/xlink"><g id="tight-bounds" transform="matrix(1,0,0,1,0.2400000000000091,-0.09999999999999432)"><svg viewBox="0 0 395.52 247.2" height="247.2" width="395.52"><g><svg></svg></g><g><svg viewBox="0 0 395.52 247.2" height="247.2" width="395.52"><g transform="matrix(1,0,0,1,89.87087004608294,47.215199999999996)"><svg viewBox="0 0 215.7782599078341 152.7696" height="152.7696" width="215.7782599078341"><g><svg viewBox="0 0 215.7782599078341 152.7696" height="152.7696" width="215.7782599078341"><g><svg viewBox="0 0 215.7782599078341 152.7696" height="152.7696" width="215.7782599078341"><g><svg viewBox="0 0 215.7782599078341 152.7696" height="152.7696" width="215.7782599078341"><g id="textblocktransform"><svg viewBox="0 0 215.7782599078341 152.7696" height="152.7696" width="215.7782599078341" id="textblock"><g><svg viewBox="0 0 215.7782599078341 152.7696" height="152.7696" width="215.7782599078341"><g transform="matrix(1,0,0,1,0,0)"><svg width="215.7782599078341" viewBox="1.3 -21.7 30.650000000000002 21.7" height="152.7696" data-palette-color="#915eff"><path d="M28.85-0.8L31.95-0.4 31.95 0 22.55 0 22.55-0.4 25.6-0.8 25.6-13.55Q25.6-15.5 25.5-16.45 25.4-17.4 25.15-18.05L25.15-18.05Q24.4-19.85 22.15-19.85L22.15-19.85Q19.75-19.85 18.1-17.65L18.1-17.65Q18.2-15.95 18.2-13.55L18.2-13.55 18.2-0.8 21.3-0.4 21.3 0 11.85 0 11.85-0.4 14.95-0.8 14.95-13.55Q14.95-15.5 14.85-16.45 14.75-17.4 14.5-18.05L14.5-18.05Q13.75-19.85 11.5-19.85L11.5-19.85Q9.15-19.85 7.55-17.8L7.55-17.8 7.55-0.8 10.6-0.4 10.6 0 1.3 0 1.3-0.4 4.3-0.8 4.3-18.3 1.35-19.4 1.35-19.75 7-21.7 7.4-21.7 7.4-18.35Q10.35-21.7 13.55-21.7L13.55-21.7Q16.45-21.7 17.65-19.25L17.65-19.25Q17.85-18.85 18-18.25L18-18.25Q21.05-21.7 24.2-21.7L24.2-21.7Q27.1-21.7 28.3-19.25L28.3-19.25Q28.65-18.6 28.75-17.43 28.85-16.25 28.85-13.55L28.85-13.55 28.85-0.8Z" opacity="1" transform="matrix(1,0,0,1,0,0)" fill="#915eff" class="wordmark-text-0" data-fill-palette-color="primary" id="text-0"></path></svg></g></svg></g></svg></g></svg></g></svg></g></svg></g></svg></g><g><path d="M231.489 0c68.262 0 123.6 55.338 123.6 123.6 0 68.262-55.338 123.6-123.6 123.6-30.402 0-58.24-10.976-79.768-29.183l11.147 0c19.26 14.022 42.974 22.294 68.621 22.295 64.458 0 116.712-52.254 116.712-116.712 0-64.458-52.254-116.712-116.712-116.712-25.647 0-49.361 8.272-68.621 22.295l-11.147 0c21.528-18.206 49.366-29.183 79.768-29.183z" fill="#915eff" stroke="transparent" data-fill-palette-color="tertiary"></path></g></svg></g><defs></defs></svg><rect width="395.52" height="247.2" fill="none" stroke="none" visibility="hidden"></rect></g></svg></g></svg>